inDegrees=no
num_controls=7
num_derivatives=13
num_iterations=147
num_multipliers=7
num_parameters=0
num_slacks=7
num_states=26
objective=5.227090
objective_accelerations=0.514545
objective_balance=0.052646
objective_effort=0.286197
objective_height=4.268002
objective_ligament=0.105699
solver_duration=1637.151768
status=Solve_Succeeded
success=true
DataType=double
version=3
OpenSimVersion=4.4-2022-07-23-0e9fedc
endheader
time	/jointset/ground_pelvis/pelvis_tilt/value	/jointset/ground_pelvis/pelvis_tx/value	/jointset/ground_pelvis/pelvis_ty/value	/jointset/hip_l/hip_flexion_l/value	/jointset/hip_l/hip_adduction_l/value	/jointset/hip_l/hip_rotation_l/value	/jointset/back/lumbar_extension/value	/jointset/patellofemoral_l/patellar_flexion_l/value	/jointset/knee_l/knee_flexion_l/value	/jointset/knee_l/knee_adduction_l/value	/jointset/knee_l/knee_rotation_l/value	/jointset/ankle_l/ankle_angle_l/value	/jointset/subtalar_l/subtalar_angle_l/value	/jointset/ground_pelvis/pelvis_tilt/speed	/jointset/ground_pelvis/pelvis_tx/speed	/jointset/ground_pelvis/pelvis_ty/speed	/jointset/hip_l/hip_flexion_l/speed	/jointset/hip_l/hip_adduction_l/speed	/jointset/hip_l/hip_rotation_l/speed	/jointset/back/lumbar_extension/speed	/jointset/patellofemoral_l/patellar_flexion_l/speed	/jointset/knee_l/knee_flexion_l/speed	/jointset/knee_l/knee_adduction_l/speed	/jointset/knee_l/knee_rotation_l/speed	/jointset/ankle_l/ankle_angle_l/speed	/jointset/subtalar_l/subtalar_angle_l/speed	/forceset/tau_hip_flexion_l	/forceset/tau_hip_adduction_l	/forceset/tau_hip_rotation_l	/forceset/tau_knee_flexion_l	/forceset/tau_ankle_angle_l	/forceset/tau_subtalar_angle_l	/forceset/tau_lumbar_extension	lambda_cid13_p0	lambda_cid13_p1	lambda_cid13_p2	lambda_cid13_p3	lambda_cid13_p4	lambda_cid13_p5	lambda_cid14_p0	/jointset/ground_pelvis/pelvis_tilt/accel	/jointset/ground_pelvis/pelvis_tx/accel	/jointset/ground_pelvis/pelvis_ty/accel	/jointset/hip_l/hip_flexion_l/accel	/jointset/hip_l/hip_adduction_l/accel	/jointset/hip_l/hip_rotation_l/accel	/jointset/back/lumbar_extension/accel	/jointset/patellofemoral_l/patellar_flexion_l/accel	/jointset/knee_l/knee_flexion_l/accel	/jointset/knee_l/knee_adduction_l/accel	/jointset/knee_l/knee_rotation_l/accel	/jointset/ankle_l/ankle_angle_l/accel	/jointset/subtalar_l/subtalar_angle_l/accel	gamma_cid13_p0	gamma_cid13_p1	gamma_cid13_p2	gamma_cid13_p3	gamma_cid13_p4	gamma_cid13_p5	gamma_cid14_p0
0	-0.04443374153909139	0.07108661322943678	0.8961510012839484	0.1955292361009247	-0.3198554648822467	-0.5254255613917902	-0.137903700187828	0.07015350928391736	0.07015350928391206	-0.1745329018519259	-0.1578014870564544	-0.06701017130107029	0.006604295414708604	0	0	0	0	0	0	0	0	0	0	0	0	0	0.09990400030849352	-0.08248134243063461	-0.03345141420762403	-0.2060537117568335	0.145132694059381	-0.02208808158984	-0.04856566639006928	9.826884354229067	1.985371170949954	6.071777565202774	18.30510299793987	-519.8493396740909	-78.49749910370619	-41.0521137316529	-5.179664715959626	-2.323706424191705	-0.9241534449576781	12.28347159779133	-1.722262728470323	2.725060663079222	-2.849577335086068	7.217582495286549	7.217582495286489	0.2541322387616138	-0.471893714469295	0.1110507100745122	-1.835397107796441	-3.154099744385575e-09	9.383699778678917e-08	4.188991625806749e-08	1.991312545626222e-09	2.366367801118996e-08	4.908811306602165e-08	-7.856549469101343e-10
0.01	-0.04468315127885922	0.07097198090676997	0.8961060313781298	0.1961251525063276	-0.3199403334397388	-0.5252893642850358	-0.1380512196597793	0.07050362246103919	0.07050362246104783	-0.1745232212471971	-0.1578209015940686	-0.06700726077998165	0.006512426329899809	-0.04966493581897413	-0.02281150619247863	-0.008963138613944309	0.1186476853388769	-0.01689242029988574	0.02712657273580834	-0.02925388339253616	0.06971034602528968	0.06971034602528667	0.001931485541442557	-0.003853349201142978	0.0005948285074369209	-0.01827683420112153	0.09619926429215096	-0.08423503540398877	-0.03285470214910623	-0.2023707185736806	0.1396903752727826	-0.01736300510637721	-0.0452729470496939	8.258032848679727	0.3001971647234647	6.235088713744782	18.11269585960162	-520.5291586219776	-81.77867729625783	-41.05912901871315	-4.827363326324924	-2.242628567476109	-0.8777629544695155	11.57507080842786	-1.660549203465362	2.689524991392083	-2.92579219145799	6.800917403411435	6.800917403411109	0.1619782790139609	-0.3376194122877887	0.03561006077178358	-1.809298926562464	-2.392207536678721e-08	1.110687329424066e-07	7.380379672461383e-08	1.889338331232219e-08	-1.160111295022419e-07	4.576625146593871e-08	-4.92155382561414e-09
0.02	-0.04542270143911811	0.07063268235203818	0.8959723563091996	0.1978914765263916	-0.3201916897047734	-0.5248852875684097	-0.1384837776356905	0.07154147044787131	0.07154147044787028	-0.174494361473364	-0.1578779624015527	-0.0669980197458802	0.006240694433021201	-0.09802808409627416	-0.04493324641299663	-0.01774103262235775	0.234081522937428	-0.03329754150849425	0.05357592197403593	-0.05700770078989011	0.1375469619410283	0.1375469619410244	0.003835833770017035	-0.00752925397632734	0.001266102602610659	-0.03597256241394539	0.09249452827558757	-0.08598872837728336	-0.03225799009073617	-0.1986877253905911	0.1342480564861783	-0.01263792862285192	-0.04198022770952636	6.733369932295083	-1.39222327321394	6.398995379546731	17.87805720949775	-520.5181997785398	-84.93636702842451	-41.07978340409898	-4.9193072076248	-2.185753229799614	-0.887104523851527	11.64070204972612	-1.624802910215089	2.589615963563068	-2.549564136049595	6.84283647337636	6.842836473376735	0.2487047761875289	-0.4364048292776009	0.1263398276217715	-1.719175910137193	-4.469005098918885e-08	1.283004680980241e-07	1.057176771911602e-07	3.579545407901815e-08	-2.556859370156737e-07	4.244438986585577e-08	-9.057452704318146e-09
0.03	-0.04663990929937337	0.07007573895394648	0.8957515969159319	0.2007968153035201	-0.3206046130019276	-0.5242201529390621	-0.1391858425312618	0.07324873471472762	0.0732487347147486	-0.1744464531816851	-0.1579710439815687	-0.06698138861049559	0.00579513714027623	-0.1451919187968895	-0.06632543154407446	-0.02639572432653643	0.3464323500131254	-0.04920288671722624	0.0793388536801739	-0.08316200718574314	0.2035935435001479	0.2035935435001459	0.005730526498973887	-0.01105155151647765	0.002088177539249289	-0.05302929302069165	0.08864978410008718	-0.08254545638605208	-0.03180294204464734	-0.1961087069174711	0.1332769414456653	-0.01315785257494113	-0.03862922554164956	6.455249709543708	-1.15591543895588	6.404945606160561	17.20775906139547	-520.3770817000232	-83.53821732306322	-41.113346959812	-4.581693776968587	-2.096443678368604	-0.8524349395491333	10.94917906700654	-1.560777613810542	2.55279633998934	-2.611873220502119	6.438718634788367	6.438718634788325	0.1575841788167136	-0.3048038732631979	0.06435005078487753	-1.682513196303832	-6.367824529755363e-08	1.36967590439747e-07	1.344359199390754e-07	5.048037348561026e-08	-3.70477735739157e-07	3.161419361516649e-08	-1.304307513100202e-08
0.04	-0.04832210994178436	0.06930877519982227	0.8954447339164516	0.2048090435575259	-0.3211740652086916	-0.5233007560795027	-0.1401421523566239	0.07560709472477364	0.07560709472477276	-0.1743800514311897	-0.1580982808682634	-0.06695569498092467	0.005182294229391638	-0.1910266405250696	-0.08693731761950041	-0.03496175386486437	0.4554594183093829	-0.06460332343030055	0.1044283680203287	-0.1078566867475488	0.2677661105636143	0.2677661105636124	0.007534525530618073	-0.01436031533181354	0.00307860143988674	-0.06942968604185562	0.08480503992497809	-0.07910218439477192	-0.03134789399906469	-0.1935296884440138	0.1323058264052878	-0.01367777652689838	-0.03527822337359277	6.217217240993215	-0.9258985658753496	6.411067624412086	16.49561397698199	-519.6160717730045	-82.02448206147868	-41.1589481955372	-4.653484613137653	-2.029693418669299	-0.8693720906813857	10.97595029383817	-1.52382121108361	2.454932490366423	-2.257638769240065	6.468033574245759	6.468033574245784	0.2305660367248776	-0.3936980843147388	0.1600096204214493	-1.587908393020846	-8.262974308397952e-08	1.454581228265442e-07	1.630882732494932e-07	6.511957843116931e-08	-4.847564827350124e-07	2.062918634075336e-08	-1.70255990741391e-08
0.05	-0.05045660832859242	0.06833940009053818	0.8950524340176936	0.2098962517040618	-0.3218949335732705	-0.5221338263268939	-0.1413376414875099	0.07859840084462268	0.07859840084463163	-0.1742957687310023	-0.1582577639294941	-0.0669192634787257	0.004408802906056391	-0.2356460329993726	-0.1068237058748502	-0.04349698202045897	0.5614498963130242	-0.07947828100954424	0.1288505969546951	-0.1310169314008642	0.3301806162748461	0.3301806162748545	0.009308237496910276	-0.01749611823410722	0.004212545019077266	-0.08516257716234672	0.08010082296214661	-0.07684739752668679	-0.03069450615525552	-0.1900804445964066	0.1290451281339224	-0.01232025854783751	-0.03139967725162976	5.315294645010204	-1.357819291642971	6.480236703470457	16.20481421350826	-518.7829702654863	-81.96126212941329	-41.21550150654681	-4.332123758071384	-1.95099863258239	-0.8455094728337359	10.33073393255822	-1.455536077766937	2.419798571816862	-2.311586109020512	6.080987936786635	6.080987936788012	0.1487427998616	-0.2674739683670094	0.09081218641627967	-1.550120054867043	-9.535212412591581e-08	1.57271797868949e-07	1.828431381385833e-07	7.63661188190615e-08	-5.585776578014499e-07	1.618528107028689e-08	-1.910808066091429e-08
0.06	-0.05303049207884661	0.06717458367797732	0.8945747995784121	0.2160273921064199	-0.3227617921229302	-0.5207258881895811	-0.1427580068240612	0.08220441779505935	0.08220441779505958	-0.174194155106503	-0.1584473955347453	-0.06687134744878502	0.003481154554855518	-0.2789037132134807	-0.1260255782748569	-0.05202866196962146	0.664245869473878	-0.09380136044568671	0.1526300449628717	-0.1528319278799035	0.39070827667507	0.3907082766750861	0.01100071039441815	-0.02039002414361719	0.005375506988206858	-0.1002610916149877	0.07539660599941019	-0.07459261065854907	-0.03004111831166596	-0.1866312007486696	0.1257844298626247	-0.01096274056868084	-0.02752113112967206	4.448555808970367	-1.794235500904461	6.548221113309228	15.87585513585448	-517.3978435080127	-81.79166322518608	-41.28182086997547	-4.381142161098565	-1.892790247600756	-0.8686624493949702	10.3370493252807	-1.413445582463396	2.326376305128452	-1.988589134384798	6.09066451204419	6.090664512043728	0.2143182229679537	-0.3453186857580177	0.1658132984091786	-1.461033059450902	-1.078122265680841e-07	1.692253947073794e-07	2.022233719362491e-07	8.746981017294665e-08	-6.306953561550696e-07	1.201679062103924e-08	-2.111056046426372e-08
0.07000000000000001	-0.05603086470574228	0.06582118425405099	0.8940116827192133	0.223171684440859	-0.3237691345865827	-0.5190834987854656	-0.1443890083020263	0.08640690604552119	0.08640690604553972	-0.1740758551803717	-0.1586651021846887	-0.06681141425140877	0.002405820766383985	-0.3209456858092501	-0.1445353046361532	-0.06060315913362296	0.764076394884045	-0.1075717987266167	0.1757328163732096	-0.1731365674726357	0.4494685007063277	0.4494685007063381	0.01263714627339288	-0.02311508487790621	0.006615184649172978	-0.1146960735925649	0.07026891406639811	-0.07179326245376022	-0.02937035361793309	-0.1834243485380984	0.1230993262989614	-0.009993765330235313	-0.02335885050052038	3.746494493040438	-2.097056790763384	6.602120166576753	15.47002797448221	-516.0992692994795	-81.22915628937631	-41.35655836153918	-4.08196447643374	-1.81219592093521	-0.8532377526618231	9.725605143802323	-1.344558855413785	2.284947716402352	-2.016631335714282	5.720574688525405	5.720574688524871	0.135029892129836	-0.2306406530707738	0.1036502099210059	-1.418340624991127	-1.163859850622487e-07	1.748540319609992e-07	2.173667811584537e-07	9.534086236169363e-08	-6.731419695164462e-07	7.749432159103771e-09	-2.285494223815391e-08
0.08	-0.05944490499211579	0.0642862611484034	0.8933625420078222	0.2312981922283822	-0.3249113246139489	-0.5172135376357556	-0.1462161021687144	0.09118737120426521	0.09118737120426683	-0.1739418461710599	-0.1589089676191332	-0.06673896323542687	0.001189415186520759	-0.3616372451096991	-0.1623303146191128	-0.06923343240806254	0.8606889600909271	-0.1207708731877762	0.1981443940801832	-0.1920504056252367	0.506303658331938	0.5063036583319471	0.01414252702306165	-0.0256217810444508	0.007879070709366496	-0.1284754498933457	0.06514122213328216	-0.06899391424900395	-0.02869958892425195	-0.1802174963276447	0.1204142227352261	-0.009024790091863362	-0.01919656987135891	3.075047105061473	-2.403248389636949	6.654283776905042	15.02935863885154	-514.319219519195	-80.57141290246139	-41.43829902326213	-4.111059502034372	-1.749846971933513	-0.879817671482591	9.693457284623756	-1.29917281850932	2.188137564455564	-1.710428846358532	5.70565123091472	5.705651230915151	0.188107197106729	-0.3016457722091623	0.1706549782545648	-1.329911924091699	-1.247090116888001e-07	1.800746073059215e-07	2.322368468596607e-07	1.030033571849478e-07	-7.136743193299361e-07	3.475695115704581e-09	-2.458267252627254e-08
0.09	-0.06325975247865728	0.06257694045801752	0.8926266705507727	0.2403760129830281	-0.3261826234139507	-0.5151229109112661	-0.1482247768642141	0.0965273942819484	0.09652739428197786	-0.1737930256078355	-0.1591771085857051	-0.06665340754841144	-0.0001612858012458147	-0.4011006421483283	-0.1794130817677592	-0.07795557518004546	0.9543430735983699	-0.1333853974658919	0.2198716579175899	-0.2094640055593081	0.5613890741527537	0.561389074152757	0.01561533648723425	-0.02796731819553014	0.009243431295770909	-0.141542320043894	0.05967020802067784	-0.06641900282600924	-0.02800616230773893	-0.1772391148713518	0.1178540319017314	-0.0077318344323817	-0.01481460741315266	2.445005756144213	-2.843556347597348	6.712022396785679	14.54332827604173	-512.6938434947255	-80.15837083027975	-41.5255284772006	-3.829247554419044	-1.669359608508607	-0.8707633967339242	9.12155013433293	-1.227086755184985	2.148595761873941	-1.723746379624718	5.363209244253746	5.363209244252641	0.1259778552881273	-0.1951130120682341	0.1210277672543346	-1.276764036277764	-1.289057685928598e-07	1.830893379059643e-07	2.397456348018036e-07	1.078568125970289e-07	-7.286043012004178e-07	-6.446893752498251e-10	-2.498458135701746e-08
